:SAMPLES-PER-SECOND 30
:FULLY-SPECIFIED
:DEGREES
158
root  -0.9489600114 36.76422299 5.084511239 6.468002319 -19.16999817 -5.671005249
lowerback  11.75730038 0.3887329996 -4.817210197
upperback  2.08246994 -0.2707949877 -3.210079908
thorax  -4.40610981 -0.0962831974 -0.6009960175
lowerneck  -4.613540173 -2.985399961 -13.71469975
upperneck  3.168070078 -3.816960096 14.90690041
head  2.252860069 -1.72586 6.697599888
lclavicle  0 -9.442270133e-015 7.951389973e-016
lhumerus  4.441030025 -18.34280014 74.84559631
lradius  2.565880188e-031 -2.425923102e-031 136.6060028
lwrist  -7.062250077e-031 -0 15.99880028
lhand  -1.496451383e-031 -27.76390076 20.11240005
lfingers  90 7.125020027 -90
lthumb  89.89689403 5.08795885 91.16245106
rclavicle  0 -9.442270133e-015 7.951389973e-016
rhumerus  -17.18840027 -1.269719958 -35.53699875
rradius  -2.349425652e-031 2.636103781e-031 131.7089996
rwrist  1.412450015e-030 -0 -8.548119545
rhand  -7.920061211e-032 -33.2840004 9.303460121
rfingers  -90 -7.125020027 -90
rthumb  -92.93752616 -24.25625642 -97.11982154
rfemur  7.346580029 10.91219997 26.67210007
rtibia  -0 0 49.36190033
rfoot  -0 -3.124360085 9.422060013
rtoes  5.373923086 19.29304026 -105.8922705
lfemur  -62.05149841 -0.1179089993 -1.989750028
ltibia  -0 0 61.03440094
lfoot  -0 14.63899994 -10.67930031
ltoes  -4.250644065 -19.5611806 -102.515957
159
root  -1.096082203 36.64288859 5.182888752 6.569000244 -17.63200378 -5.501998901
lowerback  11.83469963 0.7817649841 -4.589399815
upperback  2.270210028 0.2589249909 -3.640990019
thorax  -4.261879921 0.1549219936 -1.261059999
lowerneck  -3.470710039 -3.41121006 -14.29640007
upperneck  2.83220005 -4.502600193 15.56589985
head  2.094749928 -2.106270075 6.992179871
lclavicle  0 -9.442270133e-015 7.951389973e-016
lhumerus  4.926670074 -18.05920029 73.86560059
lradius  2.571546885e-031 -2.419915423e-031 136.7400055
lwrist  -7.062250077e-031 1.765562519e-031 15.63059998
lhand  -1.496451383e-031 -27.76390076 20.11240005
lfingers  90 7.125020027 -90
lthumb  89.89689403 5.08795885 91.16245106
rclavicle  0 -9.442270133e-015 7.951389973e-016
rhumerus  -12.87119961 -2.596120119 -32.46260071
rradius  -2.196971307e-031 2.764445896e-031 128.4750061
rwrist  2.118675023e-030 1.765562519e-031 -8.671420097
rhand  -7.920061211e-032 -33.2840004 9.303460121
rfingers  -90 -7.125020027 -90
rthumb  -92.93752616 -24.25625642 -97.11982154
rfemur  6.981269836 9.367890358 26.64900017
rtibia  -0 0 50.66949844
rfoot  -4.437382076e-032 -5.896249771 5.17538023
rtoes  5.373923086 19.29304026 -105.8922705
lfemur  -63.21099854 0.5321859717 -3.491699934
ltibia  -0 0 62.28770065
lfoot  -0 13.08419991 -8.674920082
ltoes  -4.250644065 -19.5611806 -102.515957
160
root  -1.235748933 36.52133191 5.299910973 6.572998047 -16.48100281 -5.38999939
lowerback  11.66100025 1.143849969 -4.117619991
upperback  2.656270027 0.8030490279 -4.165659904
thorax  -3.753619909 0.4076330066 -2.149339914
lowerneck  -3.017359972 -3.653300047 -14.58040047
upperneck  3.100950003 -4.925749779 16.07010078
head  2.182110071 -2.327490091 7.192120075
lclavicle  0 -9.442270133e-015 7.951389973e-016
lhumerus  5.590760231 -17.43569946 72.51979828
lradius  2.577662327e-031 -2.413400291e-031 136.8849945
lwrist  -7.062250077e-031 -0 15.60840034
lhand  -1.496451383e-031 -27.76390076 20.11240005
lfingers  90 7.125020027 -90
lthumb  89.89689403 5.08795885 91.16245106
rclavicle  0 -9.442270133e-015 7.951389973e-016
rhumerus  -8.009380341 -4.030940056 -30.0795002
rradius  -1.970388347e-031 2.930258316e-031 123.9179993
rwrist  7.062250077e-031 -3.531125038e-031 -7.840199947
rhand  -7.920061211e-032 -33.2840004 9.303460121
rfingers  -90 -7.125020027 -90
rthumb  -92.93752616 -24.25625642 -97.11982154
rfemur  6.46807003 7.766429901 26.54129982
rtibia  -0 0 52.10189819
rfoot  -5.024266963e-032 -8.761050224 0.7351499796
rtoes  5.373923086 19.29304026 -105.8922705
lfemur  -63.81930161 1.090880036 -4.671820164
ltibia  -0 0 63.32949829
lfoot  4.524641923e-032 12.70219994 -5.693369865
ltoes  -4.250644065 -19.5611806 -102.515957
161
root  -1.363037796 36.3595557 5.418755689 6.652999878 -15.60600281 -5.302993774
lowerback  11.77700043 1.557100058 -3.688220024
upperback  2.651530027 1.375839949 -4.53426981
thorax  -3.799279928 0.6863390207 -2.867719889
lowerneck  -2.455849886 -3.739979982 -14.94929981
upperneck  3.881550074 -5.189859867 16.36730003
head  2.371680021 -2.475850105 7.350530148
lclavicle  0 -9.442270133e-015 7.951389973e-016
lhumerus  5.443329811 -16.92230034 71.61489868
lradius  2.588504033e-031 -2.401768288e-031 137.1430054
lwrist  0 1.765562519e-031 15.78929996
lhand  -1.496451383e-031 -27.76390076 20.11240005
lfingers  90 7.125020027 -90
lthumb  89.89689403 5.08795885 91.16245106
rclavicle  0 -9.442270133e-015 7.951389973e-016
rhumerus  -3.026070118 -4.900599957 -27.7826004
rradius  -1.660863629e-031 3.116147628e-031 118.0569992
rwrist  7.062250077e-031 -0 -6.211619854
rhand  -7.920061211e-032 -33.2840004 9.303460121
rfingers  -90 -7.125020027 -90
rthumb  -92.93752616 -24.25625642 -97.11982154
rfemur  6.05809021 6.626580238 26.3682003
rtibia  -0 0 53.58549881
rfoot  -4.51199735e-032 -11.96899986 -3.485810041
rtoes  5.373923086 19.29304026 -105.8922705
lfemur  -64.22570038 1.548979998 -5.477769852
ltibia  -0 0 64.11499786
lfoot  4.522548577e-032 12.58399963 -3.209330082
ltoes  -4.250644065 -19.5611806 -102.515957
162
root  -1.485464423 36.17333239 5.546844287 6.707000732 -14.93899536 -5.225006104
lowerback  11.72879982 1.982560039 -3.254709959
upperback  2.695489883 1.982949972 -4.846839905
thorax  -3.687000036 0.9822750092 -3.528949976
lowerneck  -1.534389973 -3.870409966 -15.17720032
upperneck  4.144989967 -5.501190186 16.35709953
head  2.347520113 -2.670320034 7.388010025
lclavicle  0 -9.442270133e-015 7.951389973e-016
lhumerus  4.985770226 -16.39640045 70.86119843
lradius  2.603710058e-031 -2.38527524e-031 137.5070038
lwrist  0 -0 16.14170074
lhand  -1.496451383e-031 -27.76390076 20.11240005
lfingers  90 7.125020027 -90
lthumb  89.89689403 5.08795885 91.16245106
rclavicle  0 -9.442270133e-015 7.951389973e-016
rhumerus  2.218839884 -5.798049927 -25.69540024
rradius  -1.275045208e-031 3.292886842e-031 111.1669998
rwrist  1.059337512e-030 -0 -4.500589848
rhand  -7.920061211e-032 -33.2840004 9.303460121
rfingers  -90 -7.125020027 -90
rthumb  -92.93752616 -24.25625642 -97.11982154
rfemur  5.663020134 5.739180088 26.17300034
rtibia  -0 0 55.04700089
rfoot  -0 -14.70189953 -7.896679878
rtoes  5.373923086 19.29304026 -105.8922705
lfemur  -64.228302 1.777510047 -5.897550106
ltibia  -0 0 64.5625
lfoot  4.521678224e-032 12.53450012 -2.062609911
ltoes  -4.250644065 -19.5611806 -102.515957
163
root  -1.60744453 35.97400095 5.69495554 6.673995972 -14.44000244 -5.203994751
lowerback  11.61349964 2.429739952 -2.840939999
upperback  2.795130014 2.628890038 -5.053790092
thorax  -3.466660023 1.299929976 -4.065919876
lowerneck  -0.4839079976 -3.987970114 -15.27600002
upperneck  4.153260231 -5.781640053 16.14080048
head  2.21401 -2.857330084 7.341469765
lclavicle  0 -9.442270133e-015 7.951389973e-016
lhumerus  4.257909775 -16.06629944 70.32029724
lradius  2.622940765e-031 -2.364112049e-031 137.970993
lwrist  -7.062250077e-031 -0 16.31439972
lhand  -1.496451383e-031 -27.76390076 20.11240005
lfingers  90 7.125020027 -90
lthumb  89.89689403 5.08795885 91.16245106
rclavicle  0 -9.442270133e-015 7.951389973e-016
rhumerus  7.654300213 -6.512609959 -23.8647995
rradius  -8.005739849e-032 3.439175095e-031 103.1039963
rwrist  7.062250077e-031 -3.531125038e-031 -2.488019943
rhand  -7.920061211e-032 -33.2840004 9.303460121
rfingers  -90 -7.125020027 -90
rthumb  -92.93752616 -24.25625642 -97.11982154
rfemur  5.349050045 5.016220093 26.01449966
rtibia  -0 0 56.3445015
rfoot  -0 -16.70980072 -12.39649963
rtoes  5.373923086 19.29304026 -105.8922705
lfemur  -63.76300049 1.841289997 -6.023660183
ltibia  -0 0 64.68450165
lfoot  4.513573218e-032 12.06299973 -2.741559982
ltoes  -4.250644065 -19.5611806 -102.515957
164
root  -1.729077805 35.76066625 5.861177595 6.567993164 -14.05900574 -5.238998413
lowerback  11.54370022 2.885770082 -2.431380033
upperback  2.841939926 3.285130024 -5.148530006
thorax  -3.318209887 1.624709964 -4.484059811
lowerneck  0.4357520044 -4.025489807 -15.37940025
upperneck  4.251709938 -5.948200226 15.95160007
head  2.11135006 -2.980570078 7.309689999
lclavicle  0 -9.442270133e-015 7.951389973e-016
lhumerus  3.191730022 -16.05389977 70.03289795
lradius  2.643757557e-031 -2.340809692e-031 138.4779968
lwrist  -7.062250077e-031 -0 16.27429962
lhand  -1.496451383e-031 -27.76390076 20.11240005
lfingers  90 7.125020027 -90
lthumb  89.89689403 5.08795885 91.16245106
rclavicle  0 -9.442270133e-015 7.951389973e-016
rhumerus  12.7553997 -6.808849812 -22.14100075
rradius  -2.591663842e-032 3.521601457e-031 94.20899963
rwrist  1.059337512e-030 -0 -0.2971589863
rhand  -7.920061211e-032 -33.2840004 9.303460121
rfingers  -90 -7.125020027 -90
rthumb  -92.93752616 -24.25625642 -97.11982154
rfemur  5.215750217 4.496970177 25.86919975
rtibia  -0 0 57.33969879
rfoot  -0 -18.55789948 -16.24749947
rtoes  5.373923086 19.29304026 -105.8922705
lfemur  -62.95510101 1.778270006 -5.945030212
ltibia  -0 0 64.57779694
lfoot  4.463198397e-032 8.523220062 -5.642710209
ltoes  -4.250644065 -19.5611806 -102.515957
165
root  -1.850526727 35.55244386 6.022822388 6.440994263 -13.66200256 -5.143997192
lowerback  11.53439999 3.303149939 -2.170650005
upperback  2.887429953 3.870069981 -5.209579945
thorax  -3.209160089 1.915689945 -4.7740798
lowerneck  0.7468240261 -4.129220009 -15.24580002
upperneck  4.5176301 -6.134630203 15.59669971
head  2.151329994 -3.086669922 7.169400215
lclavicle  0 -9.442270133e-015 7.951389973e-016
lhumerus  1.995910048 -16.06760025 69.89160156
lradius  2.666671656e-031 -2.314671967e-031 139.0420074
lwrist  -1.412450015e-030 1.765562519e-031 16.33819962
lhand  -1.496451383e-031 -27.76390076 20.11240005
lfingers  90 7.125020027 -90
lthumb  89.89689403 5.08795885 91.16245106
rclavicle  0 -9.442270133e-015 7.951389973e-016
rhumerus  17.24640083 -6.981090069 -20.32390022
rradius  3.10870279e-032 3.51741435e-031 84.94930267
rwrist  1.059337512e-030 -0 1.497310042
rhand  -7.920061211e-032 -33.2840004 9.303460121
rfingers  -90 -7.125020027 -90
rthumb  -92.93752616 -24.25625642 -97.11982154
rfemur  5.141479969 4.062419891 25.55870056
rtibia  -0 0 57.96480179
rfoot  -0 -20.4640007 -18.96829987
rtoes  5.373923086 19.29304026 -105.8922705
lfemur  -62.13949966 1.544739962 -5.849639893
ltibia  -0 0 64.37180328
lfoot  -0 5.134379864 -8.177499771
ltoes  -4.250644065 -19.5611806 -102.515957
